<svg width="450" height="445" viewBox="0 0 450 445" fill="none" xmlns="http://www.w3.org/2000/svg">
<path d="M245.833 94.1681C177.705 47.4799 131.925 105.516 102.092 105.516C64.1227 105.516 6.08379 218.453 68.462 243.311C130.84 268.168 117.28 254.658 144.943 314.64C172.607 374.621 302.245 420.552 315.805 314.64C329.366 208.727 384.693 231.963 400.965 218.453C417.238 204.944 416.153 133.615 357.572 94.1681C298.99 54.7209 330.993 152.528 245.833 94.1681Z" fill="url(#paint0_radial)"/>
<path d="M338.566 162.788C331.082 82.2727 258.177 86.1974 239.378 64.2089C215.453 36.2237 93.1432 66.7457 113.578 128.854C134.012 190.963 135.723 172.2 107.618 231.519C79.5133 290.838 126.33 416.198 215.281 357.453C304.231 298.707 321.453 354.567 341.963 357.792C362.472 361.018 415.94 313.924 408.974 245.145C402.009 176.365 347.921 263.432 338.566 162.788Z" fill="url(#paint1_radial)" fill-opacity="0.7"/>
<circle cx="232.467" cy="206.5" r="118.5" fill="#F2F2F2" fill-opacity="0.61"/>
<circle cx="88" cy="41" r="15" stroke="#82BE00" stroke-width="10"/>
<circle cx="242" cy="422" r="9" stroke="#6C91E8" stroke-width="2"/>
<circle cx="280" cy="58" r="9" stroke="#6C91E8" stroke-width="2"/>
<rect x="411.869" y="57.9279" width="25" height="25" transform="rotate(39.615 411.869 57.9279)" stroke="#00D7F0" stroke-width="7"/>
<rect x="48.5936" y="365.52" width="15.7988" height="15.7988" transform="rotate(39.615 48.5936 365.52)" stroke="#FFC83C" stroke-width="5"/>
<rect x="197.262" y="5" width="20.7988" height="20.7988" transform="rotate(39.615 197.262 5)" fill="#FF5A4E"/>
<line x1="367.232" y1="410.232" x2="388.232" y2="389.232" stroke="#FF5A4E" stroke-opacity="0.7" stroke-width="5"/>
<line x1="74.3035" y1="287.934" x2="56.6728" y2="264.035" stroke="#00D7F0" stroke-opacity="0.7" stroke-width="5"/>
<line x1="71.6189" y1="299.383" x2="53.9882" y2="275.484" stroke="#00D7F0" stroke-opacity="0.7" stroke-width="5"/>
<line x1="378.232" y1="410.232" x2="399.232" y2="389.232" stroke="#FF5A4E" stroke-opacity="0.7" stroke-width="5"/>
<line x1="291.072" y1="28.7413" x2="317.903" y2="41.4713" stroke="#82BE00" stroke-opacity="0.7" stroke-width="5"/>
<line x1="294.765" y1="39.1027" x2="321.597" y2="51.8327" stroke="#82BE00" stroke-opacity="0.7" stroke-width="5"/>
<path d="M32.9378 115.5L39 105L45.0622 115.5H32.9378Z" stroke="#6C91E8" stroke-width="4"/>
<path d="M405.938 339.5L412 329L418.062 339.5H405.938Z" stroke="#82BE00" stroke-width="4"/>
<circle cx="134" cy="394" r="8" fill="#82BE00"/>
<circle cx="383" cy="25" r="8" fill="#FFC83C"/>
<path d="M231.784 199.054C225.774 199.054 220.888 203.946 220.888 209.95C220.888 211.122 221.104 212.264 221.464 213.358C220.955 213.43 220.451 213.445 219.937 213.565C218.377 211.976 216.539 210.661 214.566 209.725C214.144 209.523 213.688 209.456 213.256 209.293C213.611 199.352 221.757 191.36 231.784 191.36C241.451 191.36 249.251 198.613 250.201 208.078C248.536 208.51 246.885 209.139 245.291 210.018C244.657 210.368 244.057 210.747 243.553 211.112C243.174 211.352 242.857 211.669 242.497 211.938C242.617 211.29 242.689 210.627 242.689 209.96C242.685 203.941 237.793 199.054 231.784 199.054Z" fill="#6C91E8"/>
<path d="M231.731 176.581C212.056 176.581 199.144 191.427 199.144 211.102C199.144 211.371 200.334 212.024 196.221 211.837C195.717 212.13 195.107 214.592 194.704 214.885C192.875 216.051 191.411 215.394 190.206 217.107C189.707 217.021 189.169 217.04 188.661 216.992C188.392 215.029 188.209 213.037 188.209 211.045C188.209 186.963 207.803 167.37 231.885 167.37C255.966 167.37 275.555 186.963 275.555 211.045C275.555 212.062 275.454 213.056 275.387 214.054C273.597 213.925 271.787 213.978 269.944 214.419C269.2 213.656 266.185 213.301 265.336 212.662C265.35 212.23 264.597 212.293 264.597 211.856C264.592 192.181 251.406 176.581 231.731 176.581Z" fill="#82BE00"/>
<path d="M164.958 211.851C164.958 174.459 195.381 142.328 232.768 142.328C270.16 142.328 300.577 174.459 300.577 211.851C300.577 219.886 299.123 227.696 296.392 235.146C295.893 234.838 295.393 234.541 294.865 234.282C294.366 234.046 293.867 233.826 293.353 233.643C290.541 231.752 288.313 226.626 287.104 224.182C288.097 219.843 288.88 215.725 288.88 211.208C288.88 178.371 265.605 152.302 232.773 152.302C199.936 152.302 175.307 179.979 175.307 212.816C175.307 217.208 175.105 218.653 176.046 222.886C176.065 222.963 177.179 224 177.203 224.072C176.233 225.546 173.733 232.117 173.085 233.994C172.509 235.669 171.376 233.566 171.371 235.482C170.733 235.65 170.118 235.88 169.513 236.125C166.537 228.378 164.958 220.237 164.958 211.851Z" fill="#FF5A4E"/>
<path d="M227.104 215.037C227.104 215.037 224.32 212.114 217.249 215.037C217.249 215.037 204.275 200.771 190.993 217.307C190.993 217.307 172.254 217.298 172.144 234.813C172.144 234.813 148.451 248.238 176.598 259.029C176.598 259.029 185.104 274.782 198.813 262.182C198.813 262.182 214.893 275.09 223.47 261.549C223.47 261.549 236.128 277.096 244.989 263.531C244.989 263.531 260.622 279.51 272.19 261.957C272.19 261.957 302.296 276.966 300.573 241.922C300.573 241.922 296.665 231.107 290.027 231.784C290.027 231.784 282.433 207.789 265.941 213.861C265.941 213.861 252.414 202.019 240.265 216.846C240.261 216.846 229.427 213.842 227.104 215.037Z" fill="#2CC0FE"/>
<path opacity="0.33" d="M243.702 223.328C243.702 223.328 255.41 209.653 265.955 223.328C265.955 223.328 282.318 217.261 286.202 232.4C286.442 233.341 286.202 236.259 286.202 236.259C286.202 236.259 293.435 236.11 297.544 241.309C297.544 241.309 297.88 265.165 274.538 263.235C274.538 263.235 280.499 257.936 273.294 264.325L276.107 264.181C276.107 264.181 294.41 266.701 302.714 250.813C302.714 250.813 305.666 237.69 290.541 231.752C290.541 231.752 282.952 207.637 267.434 215.922C267.434 215.922 253.782 201.118 241 217.851C241 217.851 234.592 220.645 242.973 223.333" fill="#B5E7FE"/>
<path opacity="0.33" d="M220.998 225.834C220.998 225.834 209.027 209.576 198.482 223.803C198.482 223.803 182.382 219.522 178.504 235.27C178.264 236.25 178.504 239.288 178.504 239.288C178.504 239.288 170.32 238.443 168.381 244.765C166.451 251.072 168.074 257.811 191.493 258.771C193.6 258.858 203.901 260.874 193.672 266.125C193.672 266.125 192.366 265.03 191.906 265.227C185.037 268.17 176.872 262.342 165.659 252.69C165.659 252.69 161.694 241.41 172.59 236.322C172.59 236.322 169.283 218.998 194.286 216.656C194.286 216.656 199.734 204.661 231.726 218.581C231.726 218.581 226.83 220.654 221.723 225.829" fill="#B5E7FE"/>
<path opacity="0.33" d="M287.104 228.046C287.104 235.554 274.739 241.64 259.49 241.64C244.24 241.64 231.875 235.554 231.875 228.046C231.875 220.539 240.765 210.517 255.995 211.242C269.037 211.861 287.104 220.539 287.104 228.046Z" fill="#B5E7FE"/>
<path opacity="0.33" d="M221.733 227.283C216.909 231.982 211.763 240.781 199.466 240.781C187.168 240.781 177.198 234.738 177.198 227.283C177.198 222.79 183.88 220.525 190.893 217.299C195.52 215.168 199.59 211.102 204.482 211.102C216.779 211.102 227.848 221.322 221.733 227.283Z" fill="#B5E7FE"/>
<path d="M232.773 164.869C207.448 164.869 186.842 185.47 186.842 210.8C186.842 212.71 187.039 214.611 187.274 216.498C185.421 216.747 183.53 217.4 181.427 218.542C180.659 218.955 177.89 221.576 177.203 222.142C176.68 219.099 176.493 212.994 176.493 209.878C176.493 179.898 202.792 153.882 232.773 153.882C262.754 153.882 287.147 180.824 287.147 210.805C287.147 213.675 286.845 216.517 286.403 219.325C285.559 218.418 284.656 217.578 283.634 216.872C281.488 215.389 278.882 214.981 277.408 214.52C277.504 213.32 277.778 212.782 277.778 211.558C277.773 186.229 258.093 164.869 232.773 164.869Z" fill="#FFC83C"/>
<path d="M254.022 208.174C252.779 196.227 243.429 188.01 231.87 188.01C220.091 188.01 210.525 196.818 209.665 209.062C206.905 208.645 204.069 208.904 201.289 209.874C201.76 192.416 215.286 178.357 231.885 178.357C248.445 178.357 261.947 192.354 262.47 209.763C259.797 208.525 256.926 207.987 254.022 208.174Z" fill="#00D7F0"/>
<path d="M299.171 237.392C298.509 236.566 297.837 235.851 297.15 235.184C300.266 227.139 301.893 218.667 301.893 209.95C301.893 171.339 270.477 139.928 231.866 139.928C193.254 139.928 161.843 171.339 161.843 209.95C161.843 218.816 163.533 227.418 166.749 235.582C165.846 236.278 165.002 237.042 164.31 237.934C159.741 243.81 160.005 251.864 164.934 256.664C167.315 258.987 170.57 260.259 174.026 260.259C174.054 260.259 174.083 260.259 174.112 260.259C176.176 263.859 179.248 266.547 182.68 267.723C185.627 268.741 188.262 269.024 190.72 268.606C193.566 268.117 196.072 266.97 198.328 265.126C201.606 268.184 206.306 269.979 210.99 269.979C211.653 269.979 212.315 269.941 212.973 269.869C216.678 269.456 220.216 267.939 223.197 265.477C223.226 265.453 223.235 265.419 223.259 265.395C225.088 267.373 227.229 268.899 229.571 269.706C232.648 270.766 235.389 271.064 237.938 270.627C240.928 270.114 243.549 268.904 245.925 266.955C249.338 270.176 254.262 272.062 259.173 272.062C259.864 272.062 260.55 272.024 261.232 271.952C265.773 271.448 270.05 269.341 273.414 265.986C280.149 269.182 288.472 268.558 294.155 264.306C298.509 261.051 301.504 256.438 302.363 251.648C303.333 246.325 302.162 241.122 299.171 237.392ZM165.635 209.95C165.635 173.432 195.347 143.72 231.866 143.72C268.389 143.72 298.096 173.432 298.096 209.95C298.096 217.798 296.675 225.426 294.006 232.702C293.522 232.4 293.032 232.112 292.514 231.858C292.029 231.627 291.539 231.411 291.035 231.234C290.584 228.075 289.71 225.354 288.525 222.968C289.494 218.734 290.022 214.362 290.022 209.955C290.022 177.882 263.93 151.789 231.856 151.789C199.782 151.789 173.69 177.882 173.69 209.955C173.69 214.246 174.155 218.514 175.077 222.646C175.096 222.723 175.144 222.776 175.168 222.848C174.222 224.288 173.382 225.877 172.749 227.71C172.182 229.347 171.89 231.157 171.885 233.029C171.261 233.192 170.661 233.418 170.07 233.658C167.176 226.093 165.635 218.144 165.635 209.95ZM232.384 215.566C230.234 214.294 227.982 213.546 225.664 213.277C225.112 212.25 224.757 211.131 224.757 209.95C224.757 206.029 227.944 202.842 231.866 202.842C235.787 202.842 238.97 206.029 238.97 209.95C238.97 211.798 238.264 213.55 236.978 214.885C236.838 215.029 236.752 215.202 236.666 215.374C236.09 215.341 235.547 215.245 234.933 215.24C234.093 215.254 233.243 215.384 232.384 215.566ZM231.866 199.054C225.856 199.054 220.97 203.946 220.97 209.95C220.97 211.122 221.186 212.264 221.546 213.358C221.037 213.43 220.533 213.445 220.019 213.565C218.459 211.976 216.621 210.661 214.648 209.725C214.226 209.523 213.77 209.456 213.338 209.293C213.693 199.352 221.838 191.36 231.866 191.36C241.533 191.36 249.333 198.613 250.283 208.078C248.618 208.51 246.966 209.139 245.373 210.018C244.739 210.368 244.139 210.747 243.635 211.112C243.256 211.352 242.939 211.669 242.579 211.938C242.699 211.29 242.771 210.627 242.771 209.96C242.766 203.941 237.875 199.054 231.866 199.054ZM254.008 207.469C252.765 196.189 243.429 187.568 231.866 187.568C220.086 187.568 210.506 196.746 209.646 208.309C206.886 207.915 204.05 208.16 201.27 209.077C201.741 192.589 215.267 179.317 231.866 179.317C248.426 179.317 261.928 192.536 262.451 208.976C259.782 207.8 256.907 207.291 254.008 207.469ZM231.866 175.525C212.882 175.525 197.435 190.971 197.435 209.955C197.435 210.214 197.45 210.469 197.454 210.723C196.97 211.006 196.485 211.299 196.091 211.582C194.325 212.706 192.808 214.155 191.646 215.806C191.162 215.725 190.643 215.739 190.154 215.696C189.894 213.8 189.717 211.88 189.717 209.955C189.717 186.718 208.619 167.816 231.856 167.816C255.093 167.816 273.99 186.718 273.99 209.955C273.99 210.934 273.894 211.894 273.827 212.859C272.104 212.734 270.357 212.782 268.576 213.214C267.856 212.48 267.064 211.827 266.243 211.213C266.258 210.795 266.286 210.378 266.286 209.955C266.296 190.966 250.85 175.525 231.866 175.525ZM231.866 164.024C206.541 164.024 185.934 184.626 185.934 209.955C185.934 211.866 186.131 213.766 186.366 215.653C184.514 215.902 182.622 216.555 180.52 217.698C179.752 218.11 179.042 218.634 178.355 219.2C177.832 216.157 177.491 213.075 177.491 209.955C177.491 179.974 201.885 155.581 231.866 155.581C261.846 155.581 286.235 179.974 286.235 209.955C286.235 212.826 285.933 215.667 285.491 218.475C284.646 217.568 283.744 216.728 282.722 216.022C281.07 214.885 279.347 214.131 277.59 213.579C277.686 212.379 277.792 211.179 277.792 209.955C277.797 184.626 257.19 164.024 231.866 164.024ZM220.787 262.563C218.378 264.555 215.531 265.784 212.56 266.11C207.947 266.634 203.094 264.858 199.878 261.262C199.533 260.85 198.856 260.778 198.323 260.763C198.314 260.758 198.299 260.758 198.285 260.758C197.757 260.758 197.085 261.133 196.725 261.507C194.738 263.37 192.63 264.44 190.086 264.877C188.277 265.194 186.261 264.949 183.923 264.152C181.086 263.178 178.533 260.744 176.93 257.48C176.579 256.774 175.826 256.371 175.048 256.429C172.192 256.688 169.485 255.81 167.589 253.962C163.552 250.026 164.43 243.973 167.31 240.267C167.91 239.499 168.664 238.856 169.475 238.29C169.595 238.266 171.779 236.643 174.117 236.442C175.125 236.355 175.835 235.405 175.749 234.397C175.581 232.462 175.787 230.576 176.349 228.939C177.251 226.318 179.022 222.819 182.334 221.024C184.442 219.882 186.208 219.334 187.907 219.31C189.381 219.262 190.734 219.43 192.107 219.762C192.928 219.963 193.782 219.594 194.205 218.854C195.126 217.242 196.49 215.826 198.227 214.712C198.669 214.39 199.13 214.107 199.6 213.843C203.992 211.434 208.893 211.184 213.03 213.142C214.893 214.026 216.602 215.336 217.979 216.93C218.469 217.501 219.467 217.645 220.182 217.429C222.621 216.69 225.03 216.742 227.387 217.472C227.368 217.482 227.349 217.491 227.325 217.501C222.76 219.978 220.413 224.542 219.242 227.941C218.651 229.664 218.344 231.57 218.344 233.538C215.176 234.349 212.339 236.168 210.386 238.669C205.634 244.784 205.912 253.155 211.034 258.157C213.534 260.605 216.928 261.934 220.629 261.896C220.739 262.093 220.883 262.251 221.003 262.443C220.931 262.491 220.85 262.506 220.787 262.563ZM298.643 250.99C297.947 254.845 295.49 258.598 291.894 261.282C286.989 264.949 279.616 265.237 273.962 262.006C273.194 261.555 272.195 261.723 271.595 262.4C268.715 265.683 264.89 267.742 260.819 268.194C255.962 268.702 250.845 266.869 247.792 263.456L247.456 263.067C247.106 262.659 246.597 262.424 246.059 262.41C245.579 262.477 245.008 262.616 244.638 263.01L244.298 263.35C242.205 265.309 239.987 266.437 237.304 266.893C235.384 267.224 233.262 266.974 230.805 266.13C227.81 265.098 225.122 262.534 223.432 259.102C223.086 258.397 222.338 257.979 221.55 258.051C218.55 258.373 215.68 257.394 213.678 255.445C209.416 251.288 210.338 244.899 213.376 240.997C215.066 238.827 217.682 237.354 220.557 236.96C221.555 236.821 222.275 235.923 222.189 234.92C222.011 232.88 222.232 230.893 222.822 229.174C223.773 226.414 225.635 222.728 229.13 220.837C231.342 219.632 233.21 219.061 235 219.032C236.56 218.96 237.957 219.162 239.426 219.512C240.246 219.718 241.101 219.344 241.518 218.61C242.488 216.896 243.928 215.408 245.747 214.242C246.218 213.91 246.702 213.603 247.202 213.325C251.829 210.79 256.974 210.522 261.333 212.595C263.291 213.526 265.091 214.899 266.546 216.579C267.035 217.141 268.029 217.299 268.758 217.074C272.757 215.85 276.842 216.56 280.566 219.133C284.406 221.787 286.71 226.405 287.426 232.866C287.507 233.634 288.054 234.272 288.798 234.478C289.499 234.675 290.186 234.934 290.853 235.261C292.85 236.235 294.506 237.627 296.214 239.754C298.523 242.638 299.406 246.733 298.643 250.99Z" fill="black"/>
<defs>
<radialGradient id="paint0_radial" cx="0" cy="0" r="1" gradientUnits="userSpaceOnUse" gradientTransform="translate(225.467 227) rotate(90) scale(151 184.5)">
<stop stop-color="#4D4B4B"/>
<stop offset="1" stop-color="#4D4B4B"/>
</radialGradient>
<radialGradient id="paint1_radial" cx="0" cy="0" r="1" gradientUnits="userSpaceOnUse" gradientTransform="translate(224.891 233.988) rotate(139.472) scale(150.817 178.906)">
<stop stop-color="#6F00FD" stop-opacity="0.74"/>
<stop offset="1" stop-color="#F5A2ED" stop-opacity="0.68"/>
</radialGradient>
</defs>
</svg>
